<svg xmlns="http://www.w3.org/2000/svg" xmlns:svgjs="http://svgjs.com/svgjs" xmlns:xlink="http://www.w3.org/1999/xlink" width="512" height="512" version="1.1"><svg xmlns="http://www.w3.org/2000/svg" width="512" height="512" fill="none" viewBox="0 0 512 512"><path fill="#7347AB" d="M34 292.571V512H269.493C402.107 512 477.984 385.196 477.984 303.508V0H382.966L318.711 72.4592C109.535 72.4592 34 188.325 34 292.571Z"/><path fill="url(#paint0_linear_324_15)" fill-opacity=".3" d="M252.683 294.346C171.313 226.417 49.3805 213.617 49.3805 213.617C39.9185 237.441 36.668 252.825 34 283.343V512H275.303C305.025 510.098 320.914 506.621 347.762 495.935C347.762 495.935 334.053 362.278 252.683 294.346Z"/><path fill="#fff" d="M179.602 290.862H112.612V435.781H179.602V290.862Z"/><path fill="#fff" d="M282.823 167.818H215.832V435.781H282.823V167.818Z"/><path fill="#fff" d="M386.042 0.341675H319.052V435.781H386.042V0.341675Z"/><defs><linearGradient id="SvgjsLinearGradient1000" x1="190.881" x2="190.881" y1="213.617" y2="512" gradientUnits="userSpaceOnUse"><stop stop-color="#7347AB"/><stop offset="1" stop-color="#fff" stop-opacity=".28"/></linearGradient></defs></svg><style>@media (prefers-color-scheme:light){:root{filter:none}}</style></svg>